<svg xmlns="http://www.w3.org/2000/svg" xmlns:xlink="http://www.w3.org/1999/xlink" version="1.1" x="0px" y="0px" viewBox="0 0 48 60" enable-background="new 0 0 48 48" xml:space="preserve"><path d="M36,2H12C6.4858398,2,2,6.4858398,2,12v24c0,5.5141602,4.4858398,10,10,10h24c5.5141602,0,10-4.4858398,10-10V12  C46,6.4858398,41.5141602,2,36,2z M15,37c0,1.1044922-0.8955078,2-2,2s-2-0.8955078-2-2V26c0-1.1044922,0.8955078-2,2-2  s2,0.8955078,2,2V37z M26,37c0,1.1044922-0.8955078,2-2,2s-2-0.8955078-2-2V16c0-1.1044922,0.8955078-2,2-2s2,0.8955078,2,2V37z   M37,37c0,1.1044922-0.8955078,2-2,2s-2-0.8955078-2-2V11c0-1.1044922,0.8955078-2,2-2s2,0.8955078,2,2V37z"/><text x="0" y="63" fill="#000000" font-size="5px" font-weight="bold" font-family="'Helvetica Neue', Helvetica, Arial-Unicode, Arial, Sans-serif">Created by maria icon</text><text x="0" y="68" fill="#000000" font-size="5px" font-weight="bold" font-family="'Helvetica Neue', Helvetica, Arial-Unicode, Arial, Sans-serif">from the Noun Project</text></svg>