<svg xmlns="http://www.w3.org/2000/svg" xmlns:xlink="http://www.w3.org/1999/xlink" version="1.1" x="0px" y="0px" viewBox="0 0 612 990" enable-background="new 0 0 612 792" xml:space="preserve"><path fill="#000000" d="M550.076,528.918l22.898-55.736c6.121-14.896-0.971-31.965-15.893-38.1l-12.655-5.199  c-14.922-6.135-25.747-21.529-25.783-34.451c-0.049-12.897,10.704-28.365,25.577-34.571l12.644-5.273  c14.873-6.194,21.916-23.311,15.697-38.184L549.349,261.8c-6.206-14.886-23.299-21.904-38.172-15.71l-12.644,5.285  c-14.886,6.219-33.432,2.994-42.572-6.134c-9.152-9.116-12.474-27.638-6.34-42.548l5.2-12.644  c6.122-14.922-0.993-31.978-15.916-38.111l-55.724-22.91c-14.898-6.134-31.966,0.981-38.088,15.892l-5.212,12.655  c-6.134,14.922-21.528,25.759-34.451,25.796c-12.897,0.023-28.353-10.716-34.571-25.59l-5.261-12.643  c-6.207-14.874-23.311-21.904-38.196-15.698l-55.604,23.213c-14.886,6.194-21.916,23.299-15.698,38.185l5.273,12.631  c6.219,14.886,2.982,33.42-6.146,42.585c-9.104,9.14-27.626,12.473-42.536,6.327l-12.655-5.188  c-14.922-6.134-31.965,0.994-38.099,15.904l-22.911,55.725c-6.133,14.91,0.994,31.978,15.892,38.099l12.68,5.213  c14.898,6.134,25.735,21.517,25.771,34.439c0.037,12.91-10.716,28.354-25.589,34.57l-12.643,5.273  c-14.886,6.219-21.904,23.311-15.698,38.184l23.213,55.592c6.194,14.898,23.298,21.93,38.184,15.711l12.631-5.273  c14.886-6.195,33.42-2.971,42.584,6.133c9.14,9.117,12.474,27.639,6.328,42.561l-5.188,12.631  c-6.122,14.922,0.994,32.002,15.904,38.123l55.724,22.898c14.91,6.123,31.99-0.98,38.111-15.891l5.201-12.645  c6.133-14.922,21.516-25.758,34.438-25.795c12.91-0.049,28.354,10.703,34.572,25.578l5.272,12.643  c6.219,14.885,23.299,21.916,38.196,15.697l55.592-23.213c14.885-6.207,21.904-23.299,15.697-38.172l-5.272-12.643  c-6.207-14.887-2.971-33.434,6.134-42.572c9.115-9.164,27.638-12.486,42.548-6.354l12.643,5.201  C526.874,550.943,543.943,543.828,550.076,528.918z M263.381,499.705c-57.276-23.541-84.624-89.072-61.095-146.324  c23.565-57.276,89.072-84.611,146.36-61.082c57.252,23.553,84.599,89.06,61.059,146.335  C386.152,495.898,320.645,523.258,263.381,499.705z"/><text x="0" y="807" fill="#000000" font-size="5px" font-weight="bold" font-family="'Helvetica Neue', Helvetica, Arial-Unicode, Arial, Sans-serif">Created by Ersin</text><text x="0" y="812" fill="#000000" font-size="5px" font-weight="bold" font-family="'Helvetica Neue', Helvetica, Arial-Unicode, Arial, Sans-serif">from the Noun Project</text></svg>